<svg width="104" height="83" viewBox="0 0 104 83" fill="none" xmlns="http://www.w3.org/2000/svg">
<g filter="url(#filter0_dd_20_4)">
<path d="M18 41.8929C18 50.2333 24.7561 57 33.0833 57H71.6295C79.035 57 85.0368 50.9886 85.0368 43.5714C85.0368 37.0775 80.4281 31.6536 74.3109 30.4156C74.7404 29.2931 74.9813 28.0656 74.9813 26.7857C74.9813 21.2254 70.4773 16.7143 64.9258 16.7143C62.8623 16.7143 60.935 17.3437 59.3429 18.4138C56.4414 13.3781 51.0261 10 44.8147 10C35.5553 10 28.0555 17.5116 28.0555 26.7857C28.0555 27.069 28.066 27.3522 28.0765 27.6355C22.2108 29.7022 18 35.3045 18 41.8929Z" fill="#DBD3D8"/>
</g>
<g filter="url(#filter1_dd_20_4)">
<path d="M40.0158 37.2079L41.5213 25.3134C41.6269 24.4787 42.3453 23.8527 43.2011 23.8527H52.1071C52.8995 23.8527 53.5386 24.4839 53.5386 25.2664C53.5386 25.4334 53.5069 25.6055 53.4488 25.762L51.0031 32.1997H58.3614C59.4284 32.1997 60.3 33.0553 60.3 34.1143C60.3 34.5004 60.1838 34.876 59.9619 35.1942L49.8093 49.8537C49.4976 50.3024 48.9852 50.5685 48.4412 50.5685H48.288C47.4586 50.5685 46.7825 49.9007 46.7825 49.0816C46.7825 48.9616 46.7983 48.8417 46.83 48.7217L49.3127 38.8774H41.7062C40.7712 38.8774 40.0158 38.1313 40.0158 37.2079Z" fill="#0A090C"/>
</g>
<defs>
<filter id="filter0_dd_20_4" x="0" y="0" width="103.037" height="83" filterUnits="userSpaceOnUse" color-interpolation-filters="sRGB">
<feFlood flood-opacity="0" result="BackgroundImageFix"/>
<feColorMatrix in="SourceAlpha" type="matrix" values="0 0 0 0 0 0 0 0 0 0 0 0 0 0 0 0 0 0 127 0" result="hardAlpha"/>
<feOffset dy="4"/>
<feGaussianBlur stdDeviation="2"/>
<feColorMatrix type="matrix" values="0 0 0 0 0 0 0 0 0 0 0 0 0 0 0 0 0 0 0.3 0"/>
<feBlend mode="normal" in2="BackgroundImageFix" result="effect1_dropShadow_20_4"/>
<feColorMatrix in="SourceAlpha" type="matrix" values="0 0 0 0 0 0 0 0 0 0 0 0 0 0 0 0 0 0 127 0" result="hardAlpha"/>
<feMorphology radius="6" operator="dilate" in="SourceAlpha" result="effect2_dropShadow_20_4"/>
<feOffset dy="8"/>
<feGaussianBlur stdDeviation="6"/>
<feColorMatrix type="matrix" values="0 0 0 0 0 0 0 0 0 0 0 0 0 0 0 0 0 0 0.15 0"/>
<feBlend mode="normal" in2="effect1_dropShadow_20_4" result="effect2_dropShadow_20_4"/>
<feBlend mode="normal" in="SourceGraphic" in2="effect2_dropShadow_20_4" result="shape"/>
</filter>
<filter id="filter1_dd_20_4" x="22.0158" y="13.8527" width="56.2842" height="62.7158" filterUnits="userSpaceOnUse" color-interpolation-filters="sRGB">
<feFlood flood-opacity="0" result="BackgroundImageFix"/>
<feColorMatrix in="SourceAlpha" type="matrix" values="0 0 0 0 0 0 0 0 0 0 0 0 0 0 0 0 0 0 127 0" result="hardAlpha"/>
<feOffset dy="4"/>
<feGaussianBlur stdDeviation="2"/>
<feColorMatrix type="matrix" values="0 0 0 0 0 0 0 0 0 0 0 0 0 0 0 0 0 0 0.3 0"/>
<feBlend mode="normal" in2="BackgroundImageFix" result="effect1_dropShadow_20_4"/>
<feColorMatrix in="SourceAlpha" type="matrix" values="0 0 0 0 0 0 0 0 0 0 0 0 0 0 0 0 0 0 127 0" result="hardAlpha"/>
<feMorphology radius="6" operator="dilate" in="SourceAlpha" result="effect2_dropShadow_20_4"/>
<feOffset dy="8"/>
<feGaussianBlur stdDeviation="6"/>
<feColorMatrix type="matrix" values="0 0 0 0 0 0 0 0 0 0 0 0 0 0 0 0 0 0 0.15 0"/>
<feBlend mode="normal" in2="effect1_dropShadow_20_4" result="effect2_dropShadow_20_4"/>
<feBlend mode="normal" in="SourceGraphic" in2="effect2_dropShadow_20_4" result="shape"/>
</filter>
</defs>
</svg>
